<?xml version="1.0" encoding="UTF-8"?>
<!-- Created with Inkscape (http://www.inkscape.org/) -->
<svg width="36.839mm" height="19.06mm" version="1.1" viewBox="0 0 36.839 19.06" xml:space="preserve" xmlns="http://www.w3.org/2000/svg"><g transform="rotate(-34.796 -110.23 269.1)"><path d="m141.18 119.92c-3.6243 0.0263-6.1937 0.64381-10.069 2.3244-2.3137 1.0035-4.873 2.5282-7.4237 4.334l6.5574 4.5595c2.513-0.35095 4.8487-0.21796 6.9696 0.51829 3.4833 1.2093 6.0394 3.7118 7.5417 7.0895 0.40929 0.92018 0.65626 1.944 0.79234 3.0267l7.5628 5.267c0.76239-3.8028 1.123-7.4592 1.157-10.665 0.051-4.8095-1.4032-10.188-4.0003-12.972-2.597-2.7842-5.4635-3.5094-9.0878-3.483zm1.0061 2.159c1.0229 0 1.8521 0.8292 1.8521 1.8521s-0.82921 1.8521-1.8521 1.8521c-1.0229 0-1.8521-0.8292-1.8521-1.8521s0.82921-1.8521 1.8521-1.8521zm5.6885 3.175c1.0229 0 1.8521 0.8292 1.8521 1.8521s-0.82921 1.8521-1.8521 1.8521c-1.0229 0-1.8521-0.8292-1.8521-1.8521s0.82921-1.8521 1.8521-1.8521z" fill="#a2a4a8" fill-opacity=".87154" stroke-linecap="round" stroke-linejoin="bevel" stroke-width=".59718" style="paint-order:stroke fill markers"/></g></svg>
